<mxfile host="Electron" agent="Mozilla/5.0 (X11; Linux x86_64) AppleWebKit/537.36 (KHTML, like Gecko) draw.io/25.0.1 Chrome/128.0.6613.186 Electron/32.2.6 Safari/537.36" version="25.0.1">
  <diagram name="PÃ¡gina-1" id="BLRhey2DPy-YAIubBvOL">
    <mxGraphModel dx="1434" dy="823" grid="1" gridSize="10" guides="1" tooltips="1" connect="1" arrows="1" fold="1" page="1" pageScale="1" pageWidth="850" pageHeight="1100" math="0" shadow="0">
      <root>
        <mxCell id="0" />
        <mxCell id="1" parent="0" />
        <mxCell id="VFQujHKynUK1W60vRPYy-1" value="&lt;font face=&quot;Courier New&quot;&gt;&lt;b&gt;&lt;font style=&quot;&quot; color=&quot;#fffffa&quot;&gt;&lt;font style=&quot;font-size: 28px;&quot;&gt;#&lt;/font&gt;&lt;font style=&quot;font-size: 18px;&quot;&gt;&amp;nbsp;&lt;/font&gt;&lt;/font&gt;&lt;font style=&quot;font-size: 24px;&quot; color=&quot;#fffffa&quot;&gt;SOPQ &lt;/font&gt;&lt;font size=&quot;1&quot; style=&quot;&quot; color=&quot;#fffffa&quot;&gt;2023 - 2024&lt;/font&gt;&lt;/b&gt;&lt;/font&gt;" style="rounded=1;whiteSpace=wrap;html=1;fillColor=#112e05;verticalAlign=middle;strokeColor=#ffffff;strokeWidth=3;" vertex="1" parent="1">
          <mxGeometry x="220" y="110" width="240" height="40" as="geometry" />
        </mxCell>
        <mxCell id="VFQujHKynUK1W60vRPYy-2" value="" style="rounded=1;whiteSpace=wrap;html=1;fillStyle=solid;fillColor=#112E05;strokeColor=#FFFFFF;strokeWidth=5;" vertex="1" parent="1">
          <mxGeometry x="220" y="240" width="240" height="40" as="geometry" />
        </mxCell>
        <mxCell id="VFQujHKynUK1W60vRPYy-3" value="&lt;font face=&quot;Courier New&quot;&gt;# SOPQ&amp;nbsp; 2024 - 2025&lt;/font&gt;" style="text;strokeColor=none;align=center;fillColor=none;html=1;verticalAlign=middle;whiteSpace=wrap;rounded=0;fontColor=#FFFFFF;fontStyle=1;fontSize=18;fontFamily=Times New Roman;" vertex="1" parent="1">
          <mxGeometry x="230" y="245" width="220" height="30" as="geometry" />
        </mxCell>
      </root>
    </mxGraphModel>
  </diagram>
</mxfile>
